<?xml version="1.0" encoding="UTF-8"?>
<!DOCTYPE svg PUBLIC "-//W3C//DTD SVG 1.1//EN" "http://www.w3.org/Graphics/SVG/1.1/DTD/svg11.dtd">
<!-- Creator: CorelDRAW -->
<svg xmlns="http://www.w3.org/2000/svg" xml:space="preserve" width="1.70666in" height="1.70666in" style="shape-rendering:geometricPrecision; text-rendering:geometricPrecision; image-rendering:optimizeQuality; fill-rule:evenodd; clip-rule:evenodd"
viewBox="0 0 1.70666 1.70666"
 xmlns:xlink="http://www.w3.org/1999/xlink">
 <defs>
  <style type="text/css">
   <![CDATA[
    .fil1 {fill:#47D5C5}
    .fil0 {fill:#5A45CE}
    .fil2 {fill:#A948D6}
   ]]>
  </style>
 </defs>
 <g id="Layer_x0020_1">
  <metadata id="CorelCorpID_0Corel-Layer"/>
  <path class="fil0" d="M1.0967 0.288606l-0.48674 0c-0.011878,0 -0.0215354,-0.00955512 -0.0216654,-0.0214291l-1.9685e-005 -0.00180315c3.93701e-006,-0.146378 0.118902,-0.26528 0.265051,-0.26528 0.146154,0 0.265059,0.118902 0.265059,0.265051l-1.9685e-005 0.0020315c-0.000133858,0.011874 -0.00979134,0.0214291 -0.0216654,0.0214291zm-0.464213 -0.0433268l0.441701 0c-0.00998031,-0.112886 -0.105224,-0.201854 -0.220862,-0.201854 -0.115563,0 -0.21076,0.0888661 -0.220839,0.201854z"/>
  <path class="fil1" d="M1.14857 1.70657l-0.602618 0c-0.0478543,0 -0.0848898,-0.0153937 -0.110079,-0.0457598 -0.0212126,-0.0255748 -0.0339449,-0.0615118 -0.0389213,-0.109862l-0.106756 -1.03421 1.12627 0 -0.106949 1.03614c-0.00541732,0.052626 -0.0190984,0.0886732 -0.0430591,0.113433 -0.0262087,0.0270945 -0.0647677,0.0402598 -0.117886,0.0402598zm-0.0139961 -0.31098c-0.0119646,0 -0.0216654,-0.00969685 -0.0216654,-0.0216654l0 -0.611189c0,-0.0119685 0.00970079,-0.0216654 0.0216654,-0.0216654 0.0119646,0 0.0216654,0.00969685 0.0216654,0.0216654l0 0.611193c0,0.0119646 -0.00970079,0.0216614 -0.0216654,0.0216614zm-0.187496 0c-0.0119646,0 -0.0216654,-0.00969685 -0.0216654,-0.0216654l0 -0.611189c0,-0.0119685 0.00970079,-0.0216654 0.0216654,-0.0216654 0.0119646,0 0.0216654,0.00969685 0.0216654,0.0216654l0 0.611193c0,0.0119646 -0.00970079,0.0216614 -0.0216654,0.0216614zm-0.187488 0c-0.0119646,0 -0.0216654,-0.00969685 -0.0216654,-0.0216654l0 -0.611189c0,-0.0119685 0.00970079,-0.0216654 0.0216654,-0.0216654 0.0119646,0 0.0216654,0.00969685 0.0216654,0.0216654l0 0.611193c0,0.0119646 -0.00970079,0.0216614 -0.0216654,0.0216614zm-0.187496 0c-0.0119685,0 -0.0216654,-0.00969685 -0.0216654,-0.0216654l0 -0.611189c0,-0.0119685 0.00969685,-0.0216654 0.0216654,-0.0216654 0.0119646,0 0.0216654,0.00969685 0.0216654,0.0216654l0 0.611193c0,0.0119646 -0.00970079,0.0216614 -0.0216654,0.0216614z"/>
  <path class="fil2" d="M1.49043 0.473406l-1.27419 0c3.54331e-005,0 3.54331e-005,0 3.54331e-005,0l-3.54331e-005 0c-0.00574409,0 -0.0112559,-0.00228346 -0.0153189,-0.00634646 -0.00406299,-0.00406299 -0.00634646,-0.0095748 -0.00634646,-0.0153189l0 -0.0923976c0,-0.0628976 0.0511693,-0.114063 0.114063,-0.114063l1.08939 0c0.0628937,0 0.114059,0.0511654 0.114059,0.114063l0 0.0923976c-3.93701e-006,0.0119646 -0.00970079,0.0216654 -0.0216654,0.0216654z"/>
 </g>
</svg>
